<svg xmlns="http://www.w3.org/2000/svg" viewBox="0 0 17.16 15.22"><defs><style>.cls-1{fill:#406eff;}</style></defs><title>Logo 6</title><g id="Layer_2" data-name="Layer 2"><g id="Layer_1-2" data-name="Layer 1"><path class="cls-1" d="M8.81,5.29a.79.79,0,0,0,0,.13.13.13,0,0,0,.05.11.1.1,0,0,0,.11,0q.29-.13,1-.52t1.17-.64a2.94,2.94,0,0,1,.8-.3q.3,0-.26.45T9,6.46l-.46.23A.39.39,0,0,1,8,6.51a.82.82,0,0,1-.11-.75q.07-.24.15-.47a3,3,0,0,0,.13-.36.54.54,0,0,0,0-.26.08.08,0,0,0,0-.06l-.07,0H8l-.09,0a3.82,3.82,0,0,0-1.11.5A23.14,23.14,0,0,0,4,7.08q-.3.25-.62.47l-.09.05a.24.24,0,0,1-.2,0,.31.31,0,0,1-.19-.11.62.62,0,0,1-.11-.79,5.92,5.92,0,0,1,.44-.66L5.55,2.91l.08-.1,0-.07,0,0,0,0,.11-.11a.24.24,0,0,1,.22,0,.38.38,0,0,1,.22.11.4.4,0,0,1,.09.4,1.36,1.36,0,0,1-.21.35l-.07.08L5.72,4l-.24.33-.31.41A2.12,2.12,0,0,0,5,5l0,.08,0,0,0,0,0,0h0L5.38,5,6,4.65l.6-.36a3.94,3.94,0,0,1,1-.41A1,1,0,0,1,8.29,4a1,1,0,0,1,.48.6,1.2,1.2,0,0,1,0,.67Z"/><path class="cls-1" d="M1.08,15.22H1A.89.89,0,0,1,.37,15,1.11,1.11,0,0,1,0,14.45a1,1,0,0,1,0-.64,1.78,1.78,0,0,1,.26-.46,4.26,4.26,0,0,1,.86-.87A18.62,18.62,0,0,1,3.27,11Q5.82,9.49,8.51,8.19l.09,0L8.91,8a1.49,1.49,0,0,0,.61-.49l.51-.7q.61-.82,1.19-1.64t.95-1.5l.4-.66.11-.16a3.65,3.65,0,0,1,.22-.36A.24.24,0,0,1,13,2.42l.13,0a.2.2,0,0,1,.15,0,.26.26,0,0,1,.1.15h0a.84.84,0,0,1,0,.33,2.34,2.34,0,0,1-.21.48,35.67,35.67,0,0,1-1.93,3.14c-.12.17-.16.28-.12.33s.1,0,.21,0l.33-.12.09,0q.39-.16,1.49-.7L15.43,5l1.21-.6.05,0a.71.71,0,0,1,.22-.08.27.27,0,0,1,.22.1q.11.13-.26.32-1.11.57-2.57,1.41l-2,1.09q-1,.54-1.84,1a3.19,3.19,0,0,0-1.22.95A28.94,28.94,0,0,1,6.64,12a16.76,16.76,0,0,1-3.13,2.39,9.44,9.44,0,0,1-1.42.66,3.28,3.28,0,0,1-.95.16Zm.61-.86a8.28,8.28,0,0,0,1.15-.52q.55-.3,1.08-.66a17.31,17.31,0,0,0,2.72-2.33q.37-.39.73-.8l.26-.3a0,0,0,0,0,0,0v0l-.05,0-.06,0h0l-1.32.67q-.87.47-1.72,1t-1.67,1q-.69.47-1.33,1a4.25,4.25,0,0,0-.5.52L.8,14a1.1,1.1,0,0,0-.13.22.84.84,0,0,0,0,.14v0a.1.1,0,0,0,.06.09.26.26,0,0,0,.13,0A2.21,2.21,0,0,0,1.69,14.36ZM13.79,1.13l-.1-.05a.51.51,0,0,1-.12-.24.36.36,0,0,1,0-.24A4.54,4.54,0,0,1,14,.12.32.32,0,0,1,14.25,0a.41.41,0,0,1,.28.2.49.49,0,0,1,.09.3.31.31,0,0,1-.13.24L14,1.11l-.11,0h-.05Z"/><path class="cls-1" d="M16.19,6.36a.56.56,0,0,1,.87.07c.07.07,0,.22-.11.44s-.35.25-.65.09S16,6.6,16.19,6.36Z"/></g></g></svg>