<svg width="114" height="79" viewBox="0 0 114 79" fill="none" xmlns="http://www.w3.org/2000/svg">
<path d="M14.0252 44.8942C13.2408 42.5336 10.9318 41.3747 9.97694 39.1647C8.82748 36.5042 8.78143 32.798 8.98421 29.9339C9.3062 25.3861 10.1444 20.3252 11.9113 16.1128C14.0117 11.1055 19.1377 13.305 22.9936 10.8601C24.5322 9.88453 26.1417 8.49773 28.0742 8.41266C30.5346 8.30435 33.25 8.86694 35.6326 9.45141" stroke="#7CDFCD" stroke-width="3.6" stroke-linecap="round" stroke-linejoin="round"/>
<path d="M21.1066 39.1959C22.7126 34.9921 24.3778 31.056 26.4285 27.0741C27.6316 24.7378 28.5541 22.341 29.4945 19.8794C29.9874 18.5892 30.1111 17.6579 31.4269 17.0695C32.2219 16.714 32.9929 16.3049 33.8622 16.1698C35.3254 15.9423 37.9305 18.8836 38.9862 19.6212C40.327 20.5582 44.5446 22.4861 44.0192 24.924C43.5922 26.9051 41.413 27.3695 39.6757 27.6904C37.369 28.1165 35.0009 28.3138 32.7587 28.9322C31.2421 29.3505 30.7081 29.7548 29.1597 29.1632C28.1711 28.7856 27.1825 28.4079 26.1939 28.0302C25.5257 27.7749 27.8855 29.2483 28.1736 29.4961C29.8447 30.9339 31.0682 32.2227 33.1663 33.0468C34.4862 33.5652 36.22 33.9 37.4133 34.6879C37.9147 35.019 36.7036 36.5325 36.4961 36.7465C35.1596 38.1254 33.1178 38.2487 31.3122 38.3889C28.8284 38.5817 25.769 37.3544 23.4269 38.4017" stroke="#7CDFCD" stroke-width="3.6" stroke-linecap="round" stroke-linejoin="round"/>
<path d="M47.7103 39.9475C48.6335 38.4522 49.4785 37.5978 47.5455 36.8593C46.3607 36.4067 45.0646 35.6801 43.7607 35.7682C41.9498 35.8906 40.5826 39.9189 40.0937 41.4075C39.2962 43.8357 41.5478 44.9882 43.3547 45.6785C46.7792 46.9868 47.978 41.8863 48.8144 39.697" stroke="#7CDFCD" stroke-width="3.6" stroke-linecap="round" stroke-linejoin="round"/>
<path d="M54.1235 38.8375C53.7665 41.1402 53.2194 42.9637 52.3818 45.1562C52.163 45.7289 50.7709 48.8853 51.8812 47.542C53.6447 45.4084 56.3873 39.8298 59.7395 39.9746" stroke="#7CDFCD" stroke-width="3.6" stroke-linecap="round" stroke-linejoin="round"/>
<path d="M60.9006 51.3733C61.6544 49.4 62.6865 47.5784 63.4351 45.6189" stroke="#7CDFCD" stroke-width="3.6" stroke-linecap="round" stroke-linejoin="round"/>
<path d="M66.3321 40.675C66.2629 39.9763 66.1937 39.2776 66.1245 38.5789" stroke="#7CDFCD" stroke-width="3.6" stroke-linecap="round" stroke-linejoin="round"/>
<path d="M70.5916 43.2432C70.1653 46.2308 66.3184 54.4287 67.3867 51.6323C68.5639 48.5509 69.7365 46.1164 72.4167 43.9405C73.3804 43.1582 74.3802 43.0373 75.6893 43.5374C77.5988 44.2669 77.1666 46.1197 77.2269 47.4314C77.3116 49.2725 76.1663 51.5274 75.5133 53.2367C75.1196 54.2674 75.3939 55.3091 75.0385 56.2394" stroke="#7CDFCD" stroke-width="3.6" stroke-linecap="round" stroke-linejoin="round"/>
<path d="M90.4901 49.903C89.3219 48.99 88.1254 48.3135 86.7192 47.8554C85.6983 47.5228 84.7171 48.8807 83.9074 49.3445C82.1898 50.3283 81.0684 54.0947 81.2157 55.9048C81.5042 59.4502 82.9079 61.5925 86.9086 61.132C89.1537 60.8735 91.1172 55.816 91.1949 54.0172C91.2161 53.5266 91.4149 52.5509 91.0109 52.1594C90.9468 52.0973 89.6838 55.1917 89.5482 55.5467C88.4285 58.4778 87.3789 61.4448 86.1863 64.3468C85.5465 65.9038 83.6706 66.629 82.3866 67.5833C80.7627 68.7903 78.7549 68.4483 76.747 68.3968C73.7313 68.3195 70.9231 67.9257 68.1274 66.8577C66.9231 66.3976 66.3655 65.5986 65.3406 64.8824" stroke="#7CDFCD" stroke-width="3.6" stroke-linecap="round" stroke-linejoin="round"/>
<path d="M90.3703 73.5801C91.6671 73.0003 92.9414 72.5665 94.2871 72.126C96.7487 71.3201 97.8623 68.2818 99.0682 66.2588C100.971 63.0661 102.37 59.7679 103.695 56.2989C104.376 54.5157 104.818 53.2453 104.42 51.2725C103.728 47.8468 103.057 44.2954 100.757 41.6006C99.9281 40.6292 98.7572 39.4952 98.6467 38.1799C98.4899 36.3133 98.0611 34.2111 97.3114 32.5344" stroke="#7CDFCD" stroke-width="3.6" stroke-linecap="round" stroke-linejoin="round"/>
</svg>
