<svg width="246" height="20" viewBox="0 0 246 20" fill="none" xmlns="http://www.w3.org/2000/svg">
<path d="M3.01141 11.8496C6.64084 9.85064 11.8042 3.8176 17.1492 6.17714C21.6255 8.15317 25.4086 12.228 30.7844 12.9586C35.9774 13.6642 41.0211 12.9436 45.4416 11.067C48.3069 9.8507 54.7243 6.91987 58.2497 6.54157C59.4224 6.41574 64.3696 16.0191 68.1978 16.4668C68.9545 16.5553 77.2018 8.45529 78.5928 7.41953C82.2407 4.70329 83.432 9.71065 85.4502 11.9034C89.4 16.1949 102.09 6.33428 104.756 5.38781C108.647 4.00656 109.009 2.95618 110.369 6.72789C110.89 8.17336 111.224 11.9342 114.253 12.3728C119.06 13.0688 125.468 11.7498 129.268 9.67907C130.809 8.83982 138.936 4.4128 139.089 4.63231C141.075 7.49497 140.952 10.1066 143.543 12.922C145.724 15.2912 148.005 13.6325 149.929 12.1105C152.932 9.73535 156.976 9.01624 160.298 7.10114C167.303 3.06265 163.718 9.22855 166.309 12.3073C170.126 16.8422 176.819 10.9613 181.379 8.81399C191.245 4.16769 191.265 9.48084 198.347 13.8005C203.607 17.0087 209.839 6.47317 213.495 5.1753C218.502 3.39791 224.881 10.3056 228.293 12.6197C237.099 18.593 238.443 5.34672 242.951 3.74639" stroke="#FF9595" stroke-width="4" stroke-linecap="round" stroke-linejoin="round"/>
</svg>
