<svg width="49" height="29" viewBox="0 0 49 29" fill="none" xmlns="http://www.w3.org/2000/svg">
<path fill-rule="evenodd" clip-rule="evenodd" d="M0 13.5788C0 6.67524 5.59644 1.0788 12.5 1.0788H36.5C43.4036 1.0788 49 6.67524 49 13.5788V13.5788C49 20.4824 43.4036 26.0788 36.5 26.0788H12.5C5.59644 26.0788 0 20.4824 0 13.5788V13.5788Z" fill="#E2E8ED"/>
<g filter="url(#filter0_d)">
<path fill-rule="evenodd" clip-rule="evenodd" d="M12.5 23.0788C17.7467 23.0788 22 18.8255 22 13.5788C22 8.33209 17.7467 4.0788 12.5 4.0788C7.25329 4.0788 3 8.33209 3 13.5788C3 18.8255 7.25329 23.0788 12.5 23.0788Z" fill="white"/>
</g>
<defs>
<filter id="filter0_d" x="1" y="3.0788" width="23" height="23" filterUnits="userSpaceOnUse" color-interpolation-filters="sRGB">
<feFlood flood-opacity="0" result="BackgroundImageFix"/>
<feColorMatrix in="SourceAlpha" type="matrix" values="0 0 0 0 0 0 0 0 0 0 0 0 0 0 0 0 0 0 127 0"/>
<feOffset dy="1"/>
<feGaussianBlur stdDeviation="1"/>
<feColorMatrix type="matrix" values="0 0 0 0 0 0 0 0 0 0 0 0 0 0 0 0 0 0 0.05 0"/>
<feBlend mode="normal" in2="BackgroundImageFix" result="effect1_dropShadow"/>
<feBlend mode="normal" in="SourceGraphic" in2="effect1_dropShadow" result="shape"/>
</filter>
</defs>
</svg>
