<svg width="406" height="86" viewBox="0 0 406 86" fill="none" xmlns="http://www.w3.org/2000/svg">
<path d="M305.944 70.0915C326.51 73.0556 348.17 71.9734 368.876 71.3399C373.593 71.1956 378.258 68.2651 382.661 66.72C388.049 64.8293 393.23 63.6959 396.742 58.5598C401.162 52.0951 404.281 40.8884 401.489 33.115C398.953 26.0556 390.554 22.3733 384.276 20.4199C379.065 18.7987 373.546 18.5753 368.164 18.3149C352.211 17.543 336.239 17.5005 320.304 16.2724C306.747 15.2276 293.219 13.3791 279.663 12.194C261.445 10.6016 243.487 11.4984 225.265 10.8121C196.05 9.7118 166.872 8.11408 137.574 7.90416C120.894 7.78464 104.265 7.37086 87.5791 7.63195C78.535 7.77346 68.8442 6.86159 59.8755 8.31356C52.5008 9.50746 45.5163 12.1903 38.5187 14.7888C29.7669 18.0386 20.3071 19.86 11.8229 23.8287C4.7545 27.1352 3.24815 28.8591 3.3734 36.8633C3.4703 43.056 5.27124 48.0959 8.07796 53.538C11.0712 59.3416 16.2961 62.9174 21.9456 65.4169C26.2025 67.3003 30.2332 69.4436 34.662 70.9868C43.9998 74.2405 53.1406 73.9526 62.7902 75.0128C80.4885 76.9574 98.2925 76.2568 115.987 78.0884C157.952 82.4323 200.754 79.5533 242.818 78.8951C263.219 78.5759 283.62 78.2567 304.021 77.9375C312.574 77.8036 321.128 77.6698 329.682 77.5359C334.279 77.464 339.914 78.4069 343.928 76.1965" stroke="#A4DCFE" stroke-width="4" stroke-linecap="round" stroke-linejoin="round"/>
</svg>
